<svg width="11" height="11" viewBox="0 0 11 11" fill="none" xmlns="http://www.w3.org/2000/svg">
<path id="+" d="M0.0615232 6.0529C0.0615232 6.18946 0.111181 6.3074 0.210499 6.40671C0.309816 6.50603 0.427755 6.55569 0.564316 6.55569L3.95352 6.55569L3.95352 9.8704C3.95352 10.007 4.00317 10.1249 4.10249 10.2242C4.20181 10.3235 4.31975 10.3732 4.45631 10.3732L5.68536 10.3732C5.82192 10.3732 5.93986 10.3235 6.03918 10.2242C6.13849 10.1249 6.18815 10.007 6.18815 9.8704L6.18815 6.55569L9.55873 6.55569C9.69529 6.55569 9.81323 6.50603 9.91255 6.40671C10.0119 6.3074 10.0615 6.18946 10.0615 6.0529L10.0615 4.63763C10.0615 4.50107 10.0119 4.38313 9.91255 4.28381C9.81323 4.18449 9.69529 4.13483 9.55873 4.13483L6.18815 4.13483L6.18815 0.801499C6.18815 0.664938 6.13849 0.546999 6.03918 0.447682C5.93986 0.348364 5.82192 0.298706 5.68536 0.298706L4.45631 0.298706C4.31975 0.298706 4.20181 0.348364 4.10249 0.447682C4.00317 0.546999 3.95352 0.664938 3.95352 0.801499L3.95352 4.13483L0.564317 4.13483C0.427755 4.13483 0.309816 4.18449 0.210499 4.28381C0.111181 4.38313 0.0615233 4.50106 0.0615232 4.63763L0.0615232 6.0529Z" fill="#8E888C"/>
</svg>
