<svg width="11" height="3" viewBox="0 0 11 3" fill="none" xmlns="http://www.w3.org/2000/svg">
<path id="-" d="M1.29994 0.480712C1.09567 0.480712 0.919254 0.536268 0.770693 0.647379C0.622132 0.75849 0.547852 0.890434 0.547852 1.04321L0.547852 2.41821C0.547852 2.57099 0.622132 2.70293 0.770693 2.81405C0.919253 2.92516 1.09567 2.98071 1.29994 2.98071L9.79576 2.98071C10 2.98071 10.1764 2.92516 10.325 2.81405C10.4736 2.70294 10.5479 2.57099 10.5479 2.41821L10.5479 1.04321C10.5479 0.890435 10.4736 0.758491 10.325 0.64738C10.1764 0.536268 10 0.480713 9.79576 0.480713L1.29994 0.480712Z" fill="#8E888C"/>
</svg>
