<svg width="36" height="35" viewBox="0 0 36 35" fill="none" xmlns="http://www.w3.org/2000/svg">
<g id="Accept">
<path id="Vector" d="M28.9726 6.83214C22.9122 0.940069 13.0879 0.940069 7.02749 6.83214C0.967074 12.7242 0.967074 22.2756 7.02749 28.1677C13.0879 34.0597 22.9122 34.0597 28.9726 28.1677C35.033 22.2756 35.0318 12.7242 28.9726 6.83214ZM26.4451 13.7694L17.0156 22.9382C16.7828 23.1644 16.4671 23.2915 16.138 23.2915C15.8088 23.2915 15.4931 23.1644 15.2603 22.9382L9.55494 17.3901C9.43968 17.278 9.34826 17.145 9.28588 16.9986C9.2235 16.8522 9.1914 16.6953 9.1914 16.5368C9.1914 16.2168 9.32217 15.9098 9.55494 15.6835C9.7877 15.4572 10.1034 15.3301 10.4326 15.3301C10.7618 15.3301 11.0775 15.4572 11.3102 15.6835L16.138 20.3771L24.6898 12.0616C24.8052 11.9496 24.9421 11.8607 25.0927 11.8001C25.2434 11.7395 25.4049 11.7083 25.5679 11.7084C25.731 11.7084 25.8924 11.7397 26.043 11.8004C26.1937 11.8611 26.3305 11.9501 26.4458 12.0622C26.561 12.1744 26.6524 12.3075 26.7148 12.4539C26.7771 12.6004 26.8092 12.7574 26.8091 12.9159C26.8091 13.0745 26.7769 13.2314 26.7144 13.3778C26.652 13.5243 26.5605 13.6573 26.4451 13.7694Z" fill="#00AE46"/>
</g>
</svg>
