<svg width="25" height="25" viewBox="0 0 25 25" fill="none" xmlns="http://www.w3.org/2000/svg">
<g id="Basket">
<path id="Vector" d="M14.5833 18.75C14.8596 18.75 15.1246 18.6402 15.3199 18.4449C15.5153 18.2495 15.625 17.9846 15.625 17.7083V15.625C15.625 15.3487 15.5153 15.0838 15.3199 14.8884C15.1246 14.6931 14.8596 14.5833 14.5833 14.5833C14.3071 14.5833 14.0421 14.6931 13.8468 14.8884C13.6514 15.0838 13.5417 15.3487 13.5417 15.625V17.7083C13.5417 17.9846 13.6514 18.2495 13.8468 18.4449C14.0421 18.6402 14.3071 18.75 14.5833 18.75ZM10.4167 18.75C10.6929 18.75 10.9579 18.6402 11.1532 18.4449C11.3486 18.2495 11.4583 17.9846 11.4583 17.7083V15.625C11.4583 15.3487 11.3486 15.0838 11.1532 14.8884C10.9579 14.6931 10.6929 14.5833 10.4167 14.5833C10.1404 14.5833 9.87545 14.6931 9.6801 14.8884C9.48475 15.0838 9.37501 15.3487 9.37501 15.625V17.7083C9.37501 17.9846 9.48475 18.2495 9.6801 18.4449C9.87545 18.6402 10.1404 18.75 10.4167 18.75ZM19.7917 6.24999H18.3542L16.5521 2.65624C16.497 2.52401 16.4153 2.40455 16.312 2.30533C16.2086 2.20612 16.086 2.12928 15.9516 2.07962C15.8172 2.02996 15.6741 2.00854 15.5311 2.01671C15.3881 2.02488 15.2483 2.06245 15.1204 2.12708C14.9926 2.19172 14.8795 2.28202 14.7881 2.39236C14.6968 2.50269 14.6292 2.63067 14.5895 2.76832C14.5499 2.90596 14.539 3.05031 14.5577 3.19233C14.5763 3.33436 14.6241 3.47101 14.6979 3.59374L16.0208 6.24999H8.97917L10.3021 3.59374C10.4032 3.35094 10.4087 3.07887 10.3175 2.83217C10.2263 2.58546 10.0452 2.38239 9.81049 2.26371C9.57577 2.14503 9.30484 2.11954 9.05211 2.19235C8.79937 2.26516 8.58353 2.43088 8.44792 2.65624L6.64584 6.24999H5.20834C4.47208 6.26119 3.76342 6.53202 3.20735 7.01471C2.65128 7.49741 2.28352 8.16096 2.16894 8.88833C2.05435 9.61571 2.2003 10.3602 2.58103 10.9905C2.96177 11.6207 3.55285 12.0963 4.25001 12.3333L5.02084 20.1042C5.09857 20.8777 5.46182 21.5944 6.03967 22.1145C6.61751 22.6345 7.36844 22.9206 8.14584 22.9167H16.875C17.6524 22.9206 18.4033 22.6345 18.9812 22.1145C19.559 21.5944 19.9223 20.8777 20 20.1042L20.7708 12.3333C21.4695 12.0956 22.0615 11.6183 22.442 10.9859C22.8225 10.3535 22.9668 9.6069 22.8496 8.87827C22.7323 8.14963 22.3609 7.48602 21.8012 7.00497C21.2415 6.52391 20.5297 6.25646 19.7917 6.24999ZM17.9063 19.8958C17.8803 20.1537 17.7593 20.3926 17.5666 20.5659C17.374 20.7393 17.1237 20.8346 16.8646 20.8333H8.13542C7.87629 20.8346 7.62598 20.7393 7.43337 20.5659C7.24075 20.3926 7.11967 20.1537 7.09376 19.8958L6.35417 12.5H18.6458L17.9063 19.8958ZM19.7917 10.4167H5.20834C4.93207 10.4167 4.66712 10.3069 4.47177 10.1116C4.27642 9.91621 4.16667 9.65126 4.16667 9.37499C4.16667 9.09873 4.27642 8.83377 4.47177 8.63842C4.66712 8.44307 4.93207 8.33333 5.20834 8.33333H19.7917C20.0679 8.33333 20.3329 8.44307 20.5282 8.63842C20.7236 8.83377 20.8333 9.09873 20.8333 9.37499C20.8333 9.65126 20.7236 9.91621 20.5282 10.1116C20.3329 10.3069 20.0679 10.4167 19.7917 10.4167Z" fill="black"/>
</g>
</svg>
