<svg width="15" height="16" viewBox="0 0 15 16" fill="none" xmlns="http://www.w3.org/2000/svg">
<path id="Vector" d="M14.204 10.7638L12.8977 9.45759C12.5083 9.07133 11.9828 8.85356 11.4343 8.85123C10.8858 8.84889 10.3584 9.06219 9.96578 9.44512C9.75626 9.65583 9.47986 9.78693 9.18412 9.81586C8.88839 9.8448 8.59181 9.76976 8.34543 9.60365C7.37299 8.95466 6.53758 8.12087 5.88671 7.14968C5.72353 6.90055 5.6512 6.60279 5.68192 6.30656C5.71263 6.01033 5.84451 5.73375 6.05534 5.5234C6.4348 5.13038 6.64534 4.60443 6.6419 4.05813C6.63846 3.51183 6.42131 2.98858 6.03693 2.60037L4.73068 1.29412C4.33961 0.904384 3.81 0.685547 3.25789 0.685547C2.70577 0.685547 2.17616 0.904384 1.78509 1.29412L1.40924 1.67055C-0.55013 3.62993 -0.403474 7.74937 3.67321 11.8237C6.13134 14.2824 8.60549 15.312 10.6118 15.312C11.2024 15.3316 11.7909 15.2336 12.3432 15.0235C12.8955 14.8134 13.4005 14.4955 13.8287 14.0882L14.2051 13.7118C14.5956 13.3206 14.8148 12.7903 14.8146 12.2376C14.8143 11.6848 14.5947 11.1548 14.204 10.7638ZM13.3644 12.8722L12.988 13.2487C11.4442 14.7924 8.03668 14.5104 4.51159 10.9847C0.986495 7.45902 0.70387 4.04912 2.24762 2.50537L2.62109 2.12952C2.78924 1.96198 3.01695 1.8679 3.25432 1.8679C3.4917 1.8679 3.7194 1.96198 3.88756 2.12952L5.19381 3.43577C5.35891 3.6017 5.45262 3.82558 5.45495 4.05964C5.45728 4.2937 5.36804 4.51941 5.20628 4.68859C4.80507 5.09235 4.5548 5.62174 4.4974 6.18804C4.44 6.75435 4.57896 7.32318 4.891 7.79924C5.63054 8.90594 6.58155 9.85553 7.68934 10.5934C8.16397 10.9055 8.73131 11.0453 9.2966 10.9894C9.86189 10.9336 10.3909 10.6854 10.7952 10.2865C10.9641 10.1228 11.1904 10.0319 11.4256 10.0333C11.6608 10.0348 11.886 10.1284 12.0528 10.2942L13.3591 11.6004C13.4432 11.6834 13.5102 11.7822 13.5561 11.8911C13.6019 12.0001 13.6258 12.117 13.6263 12.2352C13.6268 12.3534 13.6039 12.4706 13.5589 12.5799C13.514 12.6892 13.4479 12.7886 13.3644 12.8722Z" fill="#E52A49"/>
</svg>
