<svg width="134" height="65" viewBox="0 0 134 65" fill="none" xmlns="http://www.w3.org/2000/svg">
<mask id="mask0_75_187" style="mask-type:alpha" maskUnits="userSpaceOnUse" x="0" y="18" width="134" height="47">
<rect y="18" width="134" height="47" fill="#D9D9D9"/>
</mask>
<g mask="url(#mask0_75_187)">
<path d="M125.796 18.074C101.184 18.074 99.1663 64.5399 66.3166 64.5399C33.4669 64.5399 31.4494 18.074 6.83702 18.074C-17.7754 18.074 33.4669 -28.3919 66.3166 -28.3919C99.1663 -28.3919 150.408 18.074 125.796 18.074Z" fill="#F4F5F8"/>
</g>
<path d="M94 27.5C94 42.6878 81.6878 55 66.5 55C51.3122 55 39 42.6878 39 27.5C39 12.3122 51.3122 0 66.5 0C81.6878 0 94 12.3122 94 27.5Z" fill="#E52A49"/>
</svg>
