<svg width="25" height="25" viewBox="0 0 25 25" fill="none" xmlns="http://www.w3.org/2000/svg">
<g id="Comment">
<path id="Vector" d="M18.75 2.08337H6.25C5.4212 2.08337 4.62634 2.41261 4.04029 2.99867C3.45424 3.58472 3.125 4.37957 3.125 5.20837V16.6667C3.125 17.4955 3.45424 18.2904 4.04029 18.8764C4.62634 19.4625 5.4212 19.7917 6.25 19.7917H8.94792L11.7604 22.6146C11.8577 22.7112 11.9732 22.7875 12.1001 22.8394C12.227 22.8912 12.3629 22.9175 12.5 22.9167C12.7483 22.9167 12.9884 22.8281 13.1771 22.6667L16.5312 19.7917H18.75C19.5788 19.7917 20.3737 19.4625 20.9597 18.8764C21.5458 18.2904 21.875 17.4955 21.875 16.6667V5.20837C21.875 4.37957 21.5458 3.58472 20.9597 2.99867C20.3737 2.41261 19.5788 2.08337 18.75 2.08337ZM19.7917 16.6667C19.7917 16.943 19.6819 17.2079 19.4866 17.4033C19.2912 17.5986 19.0263 17.7084 18.75 17.7084H16.1458C15.8976 17.7084 15.6574 17.797 15.4688 17.9584L12.5521 20.4584L10.1146 18.0105C10.0172 17.9139 9.90182 17.8375 9.7749 17.7857C9.64799 17.7339 9.51209 17.7076 9.375 17.7084H6.25C5.97373 17.7084 5.70878 17.5986 5.51343 17.4033C5.31808 17.2079 5.20833 16.943 5.20833 16.6667V5.20837C5.20833 4.93211 5.31808 4.66716 5.51343 4.4718C5.70878 4.27645 5.97373 4.16671 6.25 4.16671H18.75C19.0263 4.16671 19.2912 4.27645 19.4866 4.4718C19.6819 4.66716 19.7917 4.93211 19.7917 5.20837V16.6667Z" fill="black"/>
</g>
</svg>
