<svg width="32" height="31" viewBox="0 0 32 31" fill="none" xmlns="http://www.w3.org/2000/svg">
<path id="Vector" d="M17.2089 13.875H7.95894C7.55007 13.875 7.15794 14.0374 6.86882 14.3265C6.5797 14.6157 6.41728 15.0078 6.41728 15.4167C6.41728 15.8255 6.5797 16.2177 6.86882 16.5068C7.15794 16.7959 7.55007 16.9583 7.95894 16.9583H17.2089C17.6178 16.9583 18.0099 16.7959 18.2991 16.5068C18.5882 16.2177 18.7506 15.8255 18.7506 15.4167C18.7506 15.0078 18.5882 14.6157 18.2991 14.3265C18.0099 14.0374 17.6178 13.875 17.2089 13.875ZM23.3756 7.70833H7.95894C7.55007 7.70833 7.15794 7.87076 6.86882 8.15988C6.5797 8.449 6.41728 8.84112 6.41728 9.25C6.41728 9.65887 6.5797 10.051 6.86882 10.3401C7.15794 10.6292 7.55007 10.7917 7.95894 10.7917H23.3756C23.7845 10.7917 24.1766 10.6292 24.4657 10.3401C24.7549 10.051 24.9173 9.65887 24.9173 9.25C24.9173 8.84112 24.7549 8.449 24.4657 8.15988C24.1766 7.87076 23.7845 7.70833 23.3756 7.70833ZM26.4589 0H4.87561C3.64898 0 2.4726 0.487275 1.60524 1.35463C0.737886 2.22199 0.25061 3.39837 0.25061 4.625V20.0417C0.25061 21.2683 0.737886 22.4447 1.60524 23.312C2.4726 24.1794 3.64898 24.6667 4.87561 24.6667H22.7435L28.4477 30.3862C28.5917 30.5291 28.7626 30.6422 28.9504 30.7189C29.1383 30.7956 29.3394 30.8345 29.5423 30.8333C29.7445 30.8385 29.9451 30.7963 30.1281 30.71C30.4096 30.5943 30.6507 30.3979 30.8207 30.1455C30.9908 29.8931 31.0824 29.596 31.0839 29.2917V4.625C31.0839 3.39837 30.5967 2.22199 29.7293 1.35463C28.862 0.487275 27.6856 0 26.4589 0ZM28.0006 25.5763L24.4702 22.0304C24.3261 21.8875 24.1553 21.7745 23.9675 21.6978C23.7796 21.621 23.5785 21.5822 23.3756 21.5833H4.87561C4.46673 21.5833 4.07461 21.4209 3.78549 21.1318C3.49637 20.8427 3.33394 20.4505 3.33394 20.0417V4.625C3.33394 4.21612 3.49637 3.824 3.78549 3.53488C4.07461 3.24576 4.46673 3.08333 4.87561 3.08333H26.4589C26.8678 3.08333 27.2599 3.24576 27.5491 3.53488C27.8382 3.824 28.0006 4.21612 28.0006 4.625V25.5763Z" fill="white"/>
</svg>
