<svg width="32" height="32" viewBox="0 0 32 32" fill="none" xmlns="http://www.w3.org/2000/svg">
<path id="Vector" d="M17.2089 14.4581H7.95894C7.55007 14.4581 7.15794 14.6206 6.86882 14.9097C6.5797 15.1988 6.41728 15.5909 6.41728 15.9998C6.41728 16.4087 6.5797 16.8008 6.86882 17.0899C7.15794 17.379 7.55007 17.5415 7.95894 17.5415H17.2089C17.6178 17.5415 18.0099 17.379 18.2991 17.0899C18.5882 16.8008 18.7506 16.4087 18.7506 15.9998C18.7506 15.5909 18.5882 15.1988 18.2991 14.9097C18.0099 14.6206 17.6178 14.4581 17.2089 14.4581ZM23.3756 8.29146H7.95894C7.55007 8.29146 7.15794 8.45389 6.86882 8.74301C6.5797 9.03213 6.41728 9.42425 6.41728 9.83313C6.41728 10.242 6.5797 10.6341 6.86882 10.9233C7.15794 11.2124 7.55007 11.3748 7.95894 11.3748H23.3756C23.7845 11.3748 24.1766 11.2124 24.4657 10.9233C24.7549 10.6341 24.9173 10.242 24.9173 9.83313C24.9173 9.42425 24.7549 9.03213 24.4657 8.74301C24.1766 8.45389 23.7845 8.29146 23.3756 8.29146ZM26.4589 0.58313H4.87561C3.64898 0.58313 2.4726 1.07041 1.60524 1.93776C0.737886 2.80512 0.25061 3.9815 0.25061 5.20813V20.6248C0.25061 21.8514 0.737886 23.0278 1.60524 23.8952C2.4726 24.7625 3.64898 25.2498 4.87561 25.2498H22.7435L28.4477 30.9694C28.5917 31.1123 28.7626 31.2253 28.9504 31.302C29.1383 31.3787 29.3394 31.4176 29.5423 31.4165C29.7445 31.4217 29.9451 31.3794 30.1281 31.2931C30.4096 31.1775 30.6507 30.9811 30.8207 30.7287C30.9908 30.4763 31.0824 30.1792 31.0839 29.8748V5.20813C31.0839 3.9815 30.5967 2.80512 29.7293 1.93776C28.862 1.07041 27.6856 0.58313 26.4589 0.58313ZM28.0006 26.1594L24.4702 22.6135C24.3261 22.4707 24.1553 22.3576 23.9675 22.2809C23.7796 22.2042 23.5785 22.1653 23.3756 22.1665H4.87561C4.46673 22.1665 4.07461 22.004 3.78549 21.7149C3.49637 21.4258 3.33394 21.0337 3.33394 20.6248V5.20813C3.33394 4.79925 3.49637 4.40713 3.78549 4.11801C4.07461 3.82889 4.46673 3.66646 4.87561 3.66646H26.4589C26.8678 3.66646 27.2599 3.82889 27.5491 4.11801C27.8382 4.40713 28.0006 4.79925 28.0006 5.20813V26.1594Z" fill="black"/>
</svg>
