<svg width="24" height="25" viewBox="0 0 24 25" fill="none" xmlns="http://www.w3.org/2000/svg">
<g id="Dashboard">
<path id="Vector" d="M8.5 3.125H5.5C4.83696 3.125 4.20107 3.39937 3.73223 3.88774C3.26339 4.37612 3 5.0385 3 5.72917C3 6.41983 3.26339 7.08221 3.73223 7.57059C4.20107 8.05897 4.83696 8.33333 5.5 8.33333H8.5C9.16304 8.33333 9.79893 8.05897 10.2678 7.57059C10.7366 7.08221 11 6.41983 11 5.72917C11 5.0385 10.7366 4.37612 10.2678 3.88774C9.79893 3.39937 9.16304 3.125 8.5 3.125ZM8.5 7.29167H5.5C5.10218 7.29167 4.72064 7.12705 4.43934 6.83402C4.15804 6.541 4 6.14357 4 5.72917C4 5.31477 4.15804 4.91734 4.43934 4.62431C4.72064 4.33129 5.10218 4.16667 5.5 4.16667H8.5C8.89782 4.16667 9.27936 4.33129 9.56066 4.62431C9.84196 4.91734 10 5.31477 10 5.72917C10 6.14357 9.84196 6.541 9.56066 6.83402C9.27936 7.12705 8.89782 7.29167 8.5 7.29167ZM8.5 10.4167H5.5C4.83696 10.4167 4.20107 10.691 3.73223 11.1794C3.26339 11.6678 3 12.3302 3 13.0208V19.2708C3 19.9615 3.26339 20.6239 3.73223 21.1123C4.20107 21.6006 4.83696 21.875 5.5 21.875H8.5C9.16304 21.875 9.79893 21.6006 10.2678 21.1123C10.7366 20.6239 11 19.9615 11 19.2708V13.0208C11 12.3302 10.7366 11.6678 10.2678 11.1794C9.79893 10.691 9.16304 10.4167 8.5 10.4167ZM10 19.2708C10 19.6852 9.84196 20.0827 9.56066 20.3757C9.27936 20.6687 8.89782 20.8333 8.5 20.8333H5.5C5.10218 20.8333 4.72064 20.6687 4.43934 20.3757C4.15804 20.0827 4 19.6852 4 19.2708V13.0208C4 12.6064 4.15804 12.209 4.43934 11.916C4.72064 11.623 5.10218 11.4583 5.5 11.4583H8.5C8.89782 11.4583 9.27936 11.623 9.56066 11.916C9.84196 12.209 10 12.6064 10 13.0208V19.2708ZM18.5 16.6667H15.5C14.837 16.6667 14.2011 16.941 13.7322 17.4294C13.2634 17.9178 13 18.5802 13 19.2708C13 19.9615 13.2634 20.6239 13.7322 21.1123C14.2011 21.6006 14.837 21.875 15.5 21.875H18.5C19.163 21.875 19.7989 21.6006 20.2678 21.1123C20.7366 20.6239 21 19.9615 21 19.2708C21 18.5802 20.7366 17.9178 20.2678 17.4294C19.7989 16.941 19.163 16.6667 18.5 16.6667ZM18.5 20.8333H15.5C15.1022 20.8333 14.7206 20.6687 14.4393 20.3757C14.158 20.0827 14 19.6852 14 19.2708C14 18.8564 14.158 18.459 14.4393 18.166C14.7206 17.873 15.1022 17.7083 15.5 17.7083H18.5C18.8978 17.7083 19.2794 17.873 19.5607 18.166C19.842 18.459 20 18.8564 20 19.2708C20 19.6852 19.842 20.0827 19.5607 20.3757C19.2794 20.6687 18.8978 20.8333 18.5 20.8333ZM18.5 3.125H15.5C14.837 3.125 14.2011 3.39937 13.7322 3.88774C13.2634 4.37612 13 5.0385 13 5.72917V11.9792C13 12.6698 13.2634 13.3322 13.7322 13.8206C14.2011 14.309 14.837 14.5833 15.5 14.5833H18.5C19.163 14.5833 19.7989 14.309 20.2678 13.8206C20.7366 13.3322 21 12.6698 21 11.9792V5.72917C21 5.0385 20.7366 4.37612 20.2678 3.88774C19.7989 3.39937 19.163 3.125 18.5 3.125ZM20 11.9792C20 12.3936 19.842 12.791 19.5607 13.084C19.2794 13.377 18.8978 13.5417 18.5 13.5417H15.5C15.1022 13.5417 14.7206 13.377 14.4393 13.084C14.158 12.791 14 12.3936 14 11.9792V5.72917C14 5.31477 14.158 4.91734 14.4393 4.62431C14.7206 4.33129 15.1022 4.16667 15.5 4.16667H18.5C18.8978 4.16667 19.2794 4.33129 19.5607 4.62431C19.842 4.91734 20 5.31477 20 5.72917V11.9792Z" fill="black"/>
</g>
</svg>
