<svg width="27" height="27" viewBox="0 0 27 27" fill="none" xmlns="http://www.w3.org/2000/svg">
<g id="Edit" clip-path="url(#clip0_604_1037)">
<path id="Vector" d="M3.9375 26.5H20.8125C21.8584 26.4971 22.8604 26.0948 23.5986 25.3813C24.3368 24.6678 24.7509 23.7014 24.75 22.6942V14.5291C24.75 14.2418 24.6315 13.9663 24.4205 13.7631C24.2095 13.5599 23.9234 13.4458 23.625 13.4458C23.3266 13.4458 23.0405 13.5599 22.8295 13.7631C22.6185 13.9663 22.5 14.2418 22.5 14.5291V22.6942C22.5015 23.1269 22.3247 23.5425 22.0083 23.8498C21.6919 24.1571 21.2619 24.331 20.8125 24.3333H3.9375C3.48815 24.331 3.05809 24.1571 2.74172 23.8498C2.42535 23.5425 2.24851 23.1269 2.25 22.6942V6.47238C2.24851 6.03966 2.42535 5.62405 2.74172 5.31675C3.05809 5.00946 3.48815 4.83559 3.9375 4.83329H12.375C12.6734 4.83329 12.9595 4.71916 13.1705 4.51599C13.3815 4.31283 13.5 4.03728 13.5 3.74996C13.5 3.46264 13.3815 3.18709 13.1705 2.98393C12.9595 2.78076 12.6734 2.66663 12.375 2.66663H3.9375C2.89159 2.6695 1.88959 3.07183 1.15139 3.78533C0.413192 4.49882 -0.000896728 5.4652 1.45812e-06 6.47238V22.6942C-0.000896728 23.7014 0.413192 24.6678 1.15139 25.3813C1.88959 26.0948 2.89159 26.4971 3.9375 26.5Z" fill="black"/>
<path id="Vector_2" d="M10.637 11.9227L9.74942 15.8379C9.70924 16.0154 9.71611 16.1999 9.76938 16.3743C9.82266 16.5486 9.92064 16.7073 10.0543 16.8356C10.1898 16.9607 10.3546 17.0525 10.5348 17.1032C10.7149 17.154 10.9052 17.1621 11.0893 17.127L15.146 16.2701C15.3567 16.2256 15.5496 16.1237 15.7018 15.9765L25.955 6.10302C26.2685 5.80122 26.5171 5.44292 26.6868 5.04858C26.8564 4.65423 26.9438 4.23157 26.9438 3.80473C26.9438 3.37789 26.8564 2.95523 26.6868 2.56088C26.5171 2.16654 26.2685 1.80824 25.955 1.50644C25.3124 0.915086 24.4578 0.585083 23.5689 0.585083C22.6801 0.585083 21.8254 0.915086 21.1828 1.50644L10.9453 11.3897C10.7916 11.5353 10.6846 11.7203 10.637 11.9227ZM22.7735 3.03936C22.9876 2.84191 23.2725 2.73168 23.5689 2.73168C23.8653 2.73168 24.1503 2.84191 24.3643 3.03936C24.5724 3.2437 24.689 3.51851 24.689 3.80473C24.689 4.09095 24.5724 4.36576 24.3643 4.57011L23.5689 5.33602L21.9782 3.80419L22.7735 3.03936ZM12.761 12.6962L20.3818 5.33927L21.9568 6.86352L14.3327 14.2226L12.3133 14.6494L12.761 12.6962Z" fill="black"/>
</g>
<defs>
<clipPath id="clip0_604_1037">
<rect width="27" height="26" fill="white" transform="translate(0 0.5)"/>
</clipPath>
</defs>
</svg>
