<svg width="25" height="25" viewBox="0 0 25 25" fill="none" xmlns="http://www.w3.org/2000/svg">
<g id="Exit" clip-path="url(#clip0_477_740)">
<path id="Vector" d="M10.5052 16.2346L11.9792 17.7086L17.1875 12.5002L11.9792 7.29191L10.5052 8.76587L13.1979 11.4586H3.125V13.5419H13.1979L10.5052 16.2346ZM19.7917 3.12524H5.20833C4.05729 3.12524 3.125 4.05754 3.125 5.20858V9.37524H5.20833V5.20858H19.7917V19.7919H5.20833V15.6252H3.125V19.7919C3.125 20.943 4.05729 21.8752 5.20833 21.8752H19.7917C20.9427 21.8752 21.875 20.943 21.875 19.7919V5.20858C21.875 4.05754 20.9427 3.12524 19.7917 3.12524Z" fill="black"/>
</g>
<defs>
<clipPath id="clip0_477_740">
<rect width="25" height="25" fill="white" transform="translate(0 0.000244141)"/>
</clipPath>
</defs>
</svg>
