<svg width="25" height="25" viewBox="0 0 25 25" fill="none" xmlns="http://www.w3.org/2000/svg">
<g id="game-controller-svgrepo-com 1" clip-path="url(#clip0_4_203)">
<g id="Group">
<path id="Vector" d="M15.678 18.6559C16.146 18.6559 16.5254 18.2765 16.5254 17.8085C16.5254 17.3404 16.146 16.961 15.678 16.961C15.2099 16.961 14.8305 17.3404 14.8305 17.8085C14.8305 18.2765 15.2099 18.6559 15.678 18.6559Z" fill="#E52A49"/>
<path id="Vector_2" d="M18.6441 21.622C19.1121 21.622 19.4915 21.2426 19.4915 20.7746C19.4915 20.3065 19.1121 19.9271 18.6441 19.9271C18.176 19.9271 17.7966 20.3065 17.7966 20.7746C17.7966 21.2426 18.176 21.622 18.6441 21.622Z" fill="#E52A49"/>
<path id="Vector_3" d="M18.6441 15.6898C19.1121 15.6898 19.4915 15.3104 19.4915 14.8424C19.4915 14.3744 19.1121 13.9949 18.6441 13.9949C18.176 13.9949 17.7966 14.3744 17.7966 14.8424C17.7966 15.3104 18.176 15.6898 18.6441 15.6898Z" fill="#E52A49"/>
<path id="Vector_4" d="M7.6271 16.5373V15.2661H5.93219V16.5373C5.93219 16.7716 5.74236 16.961 5.50846 16.961H4.23727V18.6559H5.50846C5.74236 18.6559 5.93219 18.8454 5.93219 19.0797V20.3509H7.6271V19.0797C7.6271 18.8454 7.81694 18.6559 8.05083 18.6559H9.32202V16.961H8.05083C7.81694 16.961 7.6271 16.7716 7.6271 16.5373Z" fill="#E52A49"/>
<path id="Vector_5" d="M18.7483 11.4525H13.1356V6.57965C13.1356 5.76186 13.8008 5.0966 14.6186 5.0966C15.4364 5.0966 16.1017 5.76186 16.1017 6.57965V8.0627C16.1017 9.23092 17.0521 10.1813 18.2203 10.1813C19.3886 10.1813 20.339 9.23092 20.339 8.0627V1.28304C20.339 1.04872 20.1492 0.859314 19.9153 0.859314C19.6814 0.859314 19.4915 1.04872 19.4915 1.28304V8.0627C19.4915 8.76355 18.9212 9.33389 18.2203 9.33389C17.5195 9.33389 16.9492 8.76355 16.9492 8.0627V6.57965C16.9492 5.29491 15.9038 4.24914 14.6186 4.24914C13.3335 4.24914 12.2881 5.29491 12.2881 6.57965V11.4525H6.34407C2.84576 11.4525 0 14.2983 0 17.7966C0 20.8258 2.2072 24.0983 5.4928 24.1407L5.58136 24.1411C6.48051 24.1411 7.99703 23.989 9.55678 23.5619C11.3653 23.0661 13.7322 23.0665 15.5343 23.5614C17.0695 23.9839 18.8021 24.1411 19.5335 24.1411L19.6004 24.1407C22.1975 24.0962 25 21.658 25 17.7966C25 14.2983 22.1953 11.4525 18.7483 11.4525ZM18.6441 13.1474C19.5788 13.1474 20.339 13.9076 20.339 14.8424C20.339 15.7771 19.5788 16.5373 18.6441 16.5373C17.7093 16.5373 16.9492 15.7771 16.9492 14.8424C16.9492 13.9076 17.7093 13.1474 18.6441 13.1474ZM10.1695 19.0797C10.1695 19.314 9.97966 19.5034 9.74576 19.5034H8.47458V20.7746C8.47458 21.0089 8.28475 21.1983 8.05085 21.1983H5.50847C5.27458 21.1983 5.08475 21.0089 5.08475 20.7746V19.5034H3.81356C3.57966 19.5034 3.38983 19.314 3.38983 19.0797V16.5373C3.38983 16.303 3.57966 16.1136 3.81356 16.1136H5.08475V14.8424C5.08475 14.608 5.27458 14.4186 5.50847 14.4186H8.05085C8.28475 14.4186 8.47458 14.608 8.47458 14.8424V16.1136H9.74576C9.97966 16.1136 10.1695 16.303 10.1695 16.5373V19.0797ZM11.8644 13.9949C11.6305 13.9949 11.4407 13.8055 11.4407 13.5712C11.4407 13.3369 11.6305 13.1474 11.8644 13.1474H13.8267C14.0606 13.1474 14.2504 13.3369 14.2504 13.5712C14.2504 13.8055 14.0606 13.9949 13.8267 13.9949H11.8644ZM15.678 19.5034C14.7432 19.5034 13.9831 18.7432 13.9831 17.8085C13.9831 16.8737 14.7432 16.1136 15.678 16.1136C16.6127 16.1136 17.3729 16.8737 17.3729 17.8085C17.3729 18.7432 16.6127 19.5034 15.678 19.5034ZM18.6441 22.4695C17.7093 22.4695 16.9492 21.7093 16.9492 20.7746C16.9492 19.8398 17.7093 19.0797 18.6441 19.0797C19.5788 19.0797 20.339 19.8398 20.339 20.7746C20.339 21.7093 19.5788 22.4695 18.6441 22.4695ZM21.6102 19.5034C20.6754 19.5034 19.9153 18.7432 19.9153 17.8085C19.9153 16.8737 20.6754 16.1136 21.6102 16.1136C22.5449 16.1136 23.3051 16.8737 23.3051 17.8085C23.3051 18.7432 22.5449 19.5034 21.6102 19.5034Z" fill="#E52A49"/>
<path id="Vector_6" d="M21.6102 18.6559C22.0782 18.6559 22.4576 18.2765 22.4576 17.8085C22.4576 17.3404 22.0782 16.961 21.6102 16.961C21.1421 16.961 20.7627 17.3404 20.7627 17.8085C20.7627 18.2765 21.1421 18.6559 21.6102 18.6559Z" fill="#E52A49"/>
</g>
</g>
<defs>
<clipPath id="clip0_4_203">
<rect width="25" height="25" fill="white"/>
</clipPath>
</defs>
</svg>
