<svg width="24" height="25" viewBox="0 0 24 25" fill="none" xmlns="http://www.w3.org/2000/svg">
<g id="history">
<path id="Vector" d="M11.4401 2.5C8.87644 2.50731 6.41355 3.49891 4.56006 5.27V3.5C4.56006 3.23478 4.4547 2.98043 4.26717 2.79289C4.07963 2.60536 3.82528 2.5 3.56006 2.5C3.29484 2.5 3.04049 2.60536 2.85295 2.79289C2.66542 2.98043 2.56006 3.23478 2.56006 3.5V8C2.56006 8.26522 2.66542 8.51957 2.85295 8.70711C3.04049 8.89464 3.29484 9 3.56006 9H8.06006C8.32528 9 8.57963 8.89464 8.76717 8.70711C8.9547 8.51957 9.06006 8.26522 9.06006 8C9.06006 7.73478 8.9547 7.48043 8.76717 7.29289C8.57963 7.10536 8.32528 7 8.06006 7H5.66006C6.57177 6.03701 7.70856 5.31576 8.96819 4.90114C10.2278 4.48651 11.5707 4.39152 12.8762 4.6247C14.1816 4.85788 15.4086 5.41193 16.4468 6.23699C17.485 7.06205 18.3018 8.13226 18.8238 9.35133C19.3457 10.5704 19.5564 11.9001 19.4369 13.2208C19.3175 14.5415 18.8716 15.8118 18.1393 16.9174C17.4071 18.0231 16.4115 18.9293 15.2421 19.5547C14.0727 20.18 12.7662 20.5049 11.4401 20.5C11.1748 20.5 10.9205 20.6054 10.733 20.7929C10.5454 20.9804 10.4401 21.2348 10.4401 21.5C10.4401 21.7652 10.5454 22.0196 10.733 22.2071C10.9205 22.3946 11.1748 22.5 11.4401 22.5C14.0922 22.5 16.6358 21.4464 18.5111 19.5711C20.3865 17.6957 21.4401 15.1522 21.4401 12.5C21.4401 9.84784 20.3865 7.3043 18.5111 5.42893C16.6358 3.55357 14.0922 2.5 11.4401 2.5ZM11.4401 8.5C11.1748 8.5 10.9205 8.60536 10.733 8.79289C10.5454 8.98043 10.4401 9.23478 10.4401 9.5V12.5C10.4401 12.7652 10.5454 13.0196 10.733 13.2071C10.9205 13.3946 11.1748 13.5 11.4401 13.5H13.4401C13.7053 13.5 13.9596 13.3946 14.1472 13.2071C14.3347 13.0196 14.4401 12.7652 14.4401 12.5C14.4401 12.2348 14.3347 11.9804 14.1472 11.7929C13.9596 11.6054 13.7053 11.5 13.4401 11.5H12.4401V9.5C12.4401 9.23478 12.3347 8.98043 12.1472 8.79289C11.9596 8.60536 11.7053 8.5 11.4401 8.5Z" fill="black"/>
</g>
</svg>
