<svg width="29" height="32" viewBox="0 0 29 32" fill="none" xmlns="http://www.w3.org/2000/svg">
<path id="Vector" d="M26.7088 9.85184L17.4588 1.74267C16.6109 0.984239 15.5132 0.564941 14.3755 0.564941C13.2379 0.564941 12.1401 0.984239 11.2922 1.74267L2.04218 9.85184C1.5525 10.2898 1.16173 10.827 0.895906 11.4278C0.63008 12.0286 0.49529 12.6791 0.500512 13.336V26.8102C0.500512 28.0368 0.987788 29.2132 1.85514 30.0805C2.7225 30.9479 3.89889 31.4352 5.12551 31.4352H23.6255C24.8521 31.4352 26.0285 30.9479 26.8959 30.0805C27.7632 29.2132 28.2505 28.0368 28.2505 26.8102V13.3206C28.2535 12.6662 28.1177 12.0187 27.8519 11.4208C27.5862 10.8228 27.1966 10.2881 26.7088 9.85184ZM17.4588 28.3518H11.2922V20.6435C11.2922 20.2346 11.4546 19.8425 11.7437 19.5534C12.0328 19.2643 12.425 19.1018 12.8338 19.1018H15.9172C16.3261 19.1018 16.7182 19.2643 17.0073 19.5534C17.2964 19.8425 17.4588 20.2346 17.4588 20.6435V28.3518ZM25.1672 26.8102C25.1672 27.219 25.0048 27.6112 24.7156 27.9003C24.4265 28.1894 24.0344 28.3518 23.6255 28.3518H20.5422V20.6435C20.5422 19.4169 20.0549 18.2405 19.1875 17.3731C18.3202 16.5058 17.1438 16.0185 15.9172 16.0185H12.8338C11.6072 16.0185 10.4308 16.5058 9.56348 17.3731C8.69612 18.2405 8.20885 19.4169 8.20885 20.6435V28.3518H5.12551C4.71664 28.3518 4.32451 28.1894 4.03539 27.9003C3.74627 27.6112 3.58385 27.219 3.58385 26.8102V13.3206C3.58412 13.1017 3.63101 12.8854 3.72139 12.686C3.81177 12.4866 3.94357 12.3088 4.10801 12.1643L13.358 4.07059C13.6393 3.82343 14.001 3.68712 14.3755 3.68712C14.75 3.68712 15.1117 3.82343 15.393 4.07059L24.643 12.1643C24.8075 12.3088 24.9393 12.4866 25.0296 12.686C25.12 12.8854 25.1669 13.1017 25.1672 13.3206V26.8102Z" fill="black"/>
</svg>
