<svg width="28" height="31" viewBox="0 0 28 31" fill="none" xmlns="http://www.w3.org/2000/svg">
<path id="Vector" d="M26.2085 9.28689L16.9585 1.17773C16.1105 0.419298 15.0128 0 13.8751 0C12.7375 0 11.6398 0.419298 10.7918 1.17773L1.54181 9.28689C1.05213 9.72484 0.661367 10.2621 0.39554 10.8629C0.129714 11.4636 -0.00507603 12.1141 0.000146141 12.7711V26.2452C0.000146141 27.4719 0.487422 28.6482 1.35478 29.5156C2.22213 30.383 3.39852 30.8702 4.62515 30.8702H23.1251C24.3518 30.8702 25.5282 30.383 26.3955 29.5156C27.2629 28.6482 27.7501 27.4719 27.7501 26.2452V12.7556C27.7532 12.1013 27.6173 11.4538 27.3516 10.8558C27.0858 10.2579 26.6962 9.72312 26.2085 9.28689ZM16.9585 27.7869H10.7918V20.0786C10.7918 19.6697 10.9542 19.2776 11.2434 18.9884C11.5325 18.6993 11.9246 18.5369 12.3335 18.5369H15.4168C15.8257 18.5369 16.2178 18.6993 16.5069 18.9884C16.7961 19.2776 16.9585 19.6697 16.9585 20.0786V27.7869ZM24.6668 26.2452C24.6668 26.6541 24.5044 27.0462 24.2153 27.3354C23.9262 27.6245 23.534 27.7869 23.1251 27.7869H20.0418V20.0786C20.0418 18.8519 19.5545 17.6755 18.6872 16.8082C17.8198 15.9408 16.6434 15.4536 15.4168 15.4536H12.3335C11.1069 15.4536 9.93047 15.9408 9.06311 16.8082C8.19575 17.6755 7.70848 18.8519 7.70848 20.0786V27.7869H4.62515C4.21627 27.7869 3.82414 27.6245 3.53502 27.3354C3.2459 27.0462 3.08348 26.6541 3.08348 26.2452V12.7556C3.08376 12.5368 3.13064 12.3204 3.22102 12.1211C3.3114 11.9217 3.4432 11.7439 3.60765 11.5994L12.8576 3.50565C13.139 3.25849 13.5007 3.12218 13.8751 3.12218C14.2496 3.12218 14.6113 3.25849 14.8926 3.50565L24.1426 11.5994C24.3071 11.7439 24.4389 11.9217 24.5293 12.1211C24.6196 12.3204 24.6665 12.5368 24.6668 12.7556V26.2452Z" fill="white"/>
</svg>
