<svg width="27" height="28" viewBox="0 0 27 28" fill="none" xmlns="http://www.w3.org/2000/svg">
<path d="M13.4999 0.500122C10.8299 0.500122 8.21983 1.29188 5.99978 2.77527C3.77973 4.25866 2.04941 6.36706 1.02763 8.83385C0.00584931 11.3006 -0.261494 14.015 0.259404 16.6338C0.780302 19.2525 2.06605 21.658 3.95405 23.546C5.84205 25.434 8.24751 26.7197 10.8662 27.2406C13.485 27.7615 16.1994 27.4942 18.6661 26.4724C21.1329 25.4506 23.2413 23.7203 24.7247 21.5002C26.2081 19.2802 26.9999 16.6701 26.9999 14.0001C26.9999 12.2272 26.6507 10.4717 25.9723 8.83385C25.2938 7.19597 24.2994 5.70775 23.0458 4.45416C21.7923 3.20058 20.304 2.20618 18.6661 1.52774C17.0283 0.849308 15.2728 0.500122 13.4999 0.500122ZM13.4999 24.8C11.3639 24.8 9.27585 24.1666 7.49981 22.9799C5.72377 21.7932 4.33951 20.1064 3.52209 18.133C2.70467 16.1596 2.49079 13.9881 2.90751 11.8931C3.32423 9.79811 4.35282 7.87374 5.86322 6.36334C7.37362 4.85294 9.29799 3.82435 11.393 3.40763C13.488 2.99091 15.6595 3.20478 17.6329 4.02221C19.6063 4.83963 21.2931 6.22389 22.4798 7.99993C23.6665 9.77597 24.2999 11.864 24.2999 14.0001C24.2999 16.8644 23.162 19.6114 21.1367 21.6368C19.1113 23.6622 16.3643 24.8 13.4999 24.8Z" fill="white"/>
<path d="M13.5004 9.95005C14.246 9.95005 14.8504 9.34564 14.8504 8.60005C14.8504 7.85447 14.246 7.25006 13.5004 7.25006C12.7548 7.25006 12.1504 7.85447 12.1504 8.60005C12.1504 9.34564 12.7548 9.95005 13.5004 9.95005Z" fill="white"/>
<path d="M13.5004 11.3C13.1423 11.3 12.799 11.4423 12.5458 11.6955C12.2926 11.9486 12.1504 12.292 12.1504 12.65V19.4C12.1504 19.758 12.2926 20.1014 12.5458 20.3546C12.799 20.6078 13.1423 20.75 13.5004 20.75C13.8584 20.75 14.2018 20.6078 14.455 20.3546C14.7081 20.1014 14.8504 19.758 14.8504 19.4V12.65C14.8504 12.292 14.7081 11.9486 14.455 11.6955C14.2018 11.4423 13.8584 11.3 13.5004 11.3Z" fill="white"/>
</svg>
