<svg width="25" height="25" viewBox="0 0 25 25" fill="none" xmlns="http://www.w3.org/2000/svg">
<path d="M3.9375 24.5H20.8125C21.8584 24.4971 22.8604 24.0948 23.5986 23.3813C24.3368 22.6678 24.7509 21.7014 24.75 20.6942V12.5291C24.75 12.2418 24.6315 11.9663 24.4205 11.7631C24.2095 11.5599 23.9234 11.4458 23.625 11.4458C23.3266 11.4458 23.0405 11.5599 22.8295 11.7631C22.6185 11.9663 22.5 12.2418 22.5 12.5291V20.6942C22.5015 21.1269 22.3247 21.5425 22.0083 21.8498C21.6919 22.1571 21.2619 22.331 20.8125 22.3333H3.9375C3.48815 22.331 3.05809 22.1571 2.74172 21.8498C2.42535 21.5425 2.24851 21.1269 2.25 20.6942V4.47238C2.24851 4.03966 2.42535 3.62405 2.74172 3.31675C3.05809 3.00946 3.48815 2.83559 3.9375 2.83329H12.375C12.6734 2.83329 12.9595 2.71916 13.1705 2.51599C13.3815 2.31283 13.5 2.03728 13.5 1.74996C13.5 1.46264 13.3815 1.18709 13.1705 0.983927C12.9595 0.780763 12.6734 0.666626 12.375 0.666626H3.9375C2.89159 0.669495 1.88959 1.07183 1.15139 1.78533C0.413192 2.49882 -0.000896728 3.4652 1.45812e-06 4.47238V20.6942C-0.000896728 21.7014 0.413192 22.6678 1.15139 23.3813C1.88959 24.0948 2.89159 24.4971 3.9375 24.5Z" fill="black"/>
</svg>
