<svg width="18" height="18" viewBox="0 0 18 18" fill="none" xmlns="http://www.w3.org/2000/svg">
<path d="M1.63704 11.9227L0.749417 15.8379C0.70924 16.0154 0.716106 16.1999 0.769384 16.3743C0.822661 16.5486 0.920638 16.7073 1.05429 16.8356C1.18978 16.9607 1.3546 17.0525 1.53477 17.1032C1.71494 17.154 1.90515 17.1621 2.08929 17.127L6.14604 16.2701C6.35668 16.2256 6.54959 16.1237 6.70179 15.9765L16.955 6.10302C17.2685 5.80122 17.5171 5.44292 17.6868 5.04858C17.8564 4.65423 17.9438 4.23157 17.9438 3.80473C17.9438 3.37789 17.8564 2.95523 17.6868 2.56088C17.5171 2.16654 17.2685 1.80824 16.955 1.50644C16.3124 0.915086 15.4578 0.585083 14.5689 0.585083C13.6801 0.585083 12.8254 0.915086 12.1828 1.50644L1.94529 11.3897C1.79164 11.5353 1.68465 11.7203 1.63704 11.9227ZM13.7735 3.03936C13.9876 2.84191 14.2725 2.73168 14.5689 2.73168C14.8653 2.73168 15.1503 2.84191 15.3643 3.03936C15.5724 3.2437 15.689 3.51851 15.689 3.80473C15.689 4.09095 15.5724 4.36576 15.3643 4.57011L14.5689 5.33602L12.9782 3.80419L13.7735 3.03936ZM3.76104 12.6962L11.3818 5.33927L12.9568 6.86352L5.33267 14.2226L3.31329 14.6494L3.76104 12.6962Z" fill="black"/>
</svg>
