<svg width="31" height="31" viewBox="0 0 31 31" fill="none" xmlns="http://www.w3.org/2000/svg">
<path id="Vector" d="M21.0376 16.5197C22.5491 15.3306 23.6523 13.6999 24.1938 11.8546C24.7353 10.0092 24.6882 8.04097 24.059 6.22365C23.4298 4.40634 22.2498 2.83033 20.6832 1.71488C19.1165 0.599423 17.2412 0 15.318 0C13.3949 0 11.5196 0.599423 9.95294 1.71488C8.38632 2.83033 7.20633 4.40634 6.57713 6.22365C5.94792 8.04097 5.9008 10.0092 6.44231 11.8546C6.98381 13.6999 8.08703 15.3306 9.59846 16.5197C7.00859 17.5573 4.74883 19.2783 3.06009 21.4992C1.37136 23.7201 0.316959 26.3576 0.00929909 29.1306C-0.0129709 29.333 0.00485375 29.5379 0.061755 29.7334C0.118656 29.929 0.21352 30.1114 0.340929 30.2704C0.598245 30.5913 0.972507 30.7968 1.38138 30.8418C1.79026 30.8868 2.20025 30.7675 2.52118 30.5102C2.8421 30.2529 3.04766 29.8786 3.09263 29.4697C3.43116 26.4561 4.86815 23.6728 7.12905 21.6516C9.38996 19.6305 12.3163 18.5131 15.3489 18.5131C18.3815 18.5131 21.3078 19.6305 23.5687 21.6516C25.8296 23.6728 27.2666 26.4561 27.6051 29.4697C27.647 29.8485 27.8278 30.1984 28.1125 30.4518C28.3972 30.7052 28.7657 30.8441 29.1468 30.8418H29.3164C29.7205 30.7953 30.0899 30.591 30.344 30.2733C30.5981 29.9557 30.7164 29.5504 30.673 29.146C30.3639 26.3651 29.3039 23.7208 27.6064 21.4965C25.909 19.2722 23.6383 17.5518 21.0376 16.5197ZM15.318 15.4251C14.0984 15.4251 12.9061 15.0635 11.892 14.3859C10.8779 13.7083 10.0875 12.7452 9.62079 11.6184C9.15405 10.4915 9.03193 9.25163 9.26987 8.05542C9.50781 6.8592 10.0951 5.7604 10.9576 4.89798C11.82 4.03556 12.9188 3.44824 14.115 3.2103C15.3112 2.97235 16.5511 3.09448 17.6779 3.56122C18.8047 4.02796 19.7678 4.81835 20.4454 5.83246C21.123 6.84656 21.4847 8.03882 21.4847 9.25847C21.4847 10.894 20.835 12.4625 19.6785 13.619C18.5221 14.7754 16.9536 15.4251 15.318 15.4251Z" fill="black"/>
</svg>
