<svg width="23" height="24" viewBox="0 0 23 24" fill="none" xmlns="http://www.w3.org/2000/svg">
<path d="M18.6498 3.60313H4.13239L5.70512 2.05589C5.93292 1.83004 6.0609 1.52372 6.0609 1.20431C6.0609 0.88491 5.93292 0.578588 5.70512 0.352735C5.47731 0.126883 5.16833 0 4.84617 0C4.524 0 4.21502 0.126883 3.98722 0.352735L0.357853 3.95096C0.244462 4.06246 0.15446 4.19511 0.0930411 4.34127C0.0316217 4.48743 0 4.6442 0 4.80254C0 4.96087 0.0316217 5.11764 0.0930411 5.2638C0.15446 5.40996 0.244462 5.54261 0.357853 5.65411L3.98722 9.25233C4.09968 9.36475 4.23349 9.45398 4.38091 9.51487C4.52833 9.57577 4.68646 9.60712 4.84617 9.60712C5.00587 9.60712 5.164 9.57577 5.31142 9.51487C5.45885 9.45398 5.59265 9.36475 5.70512 9.25233C5.81851 9.14083 5.90851 9.00818 5.96993 8.86202C6.03135 8.71586 6.06297 8.55909 6.06297 8.40076C6.06297 8.24242 6.03135 8.08565 5.96993 7.93949C5.90851 7.79333 5.81851 7.66068 5.70512 7.54918L4.13239 6.00194H18.6498C18.8977 5.99717 19.1441 6.04086 19.3749 6.13051C19.6057 6.22015 19.8164 6.35401 19.9951 6.52442C20.1737 6.69483 20.3167 6.89847 20.416 7.12369C20.5152 7.34891 20.5687 7.59131 20.5734 7.83703V10.7996C20.5734 11.1177 20.7009 11.4227 20.9277 11.6477C21.1546 11.8726 21.4623 11.999 21.7832 11.999C22.1041 11.999 22.4118 11.8726 22.6386 11.6477C22.8655 11.4227 22.993 11.1177 22.993 10.7996V7.83703C22.9882 7.2763 22.8721 6.72198 22.6513 6.20573C22.4305 5.68949 22.1092 5.22142 21.7059 4.82826C21.3026 4.4351 20.8252 4.12455 20.3008 3.91434C19.7764 3.70413 19.2154 3.59838 18.6498 3.60313ZM19.0128 14.7456C18.785 14.5198 18.476 14.3929 18.1538 14.3929C17.8317 14.3929 17.5227 14.5198 17.2949 14.7456C17.0671 14.9715 16.9391 15.2778 16.9391 15.5972C16.9391 15.9166 17.0671 16.2229 17.2949 16.4488L18.8676 17.996H4.35015C4.1023 18.0008 3.85593 17.9571 3.62511 17.8674C3.39429 17.7778 3.18355 17.6439 3.00492 17.4735C2.82629 17.3031 2.68328 17.0995 2.58405 16.8743C2.48482 16.649 2.43131 16.4066 2.42659 16.1609V13.1984C2.42659 12.8803 2.29913 12.5752 2.07225 12.3503C1.84537 12.1253 1.53766 11.999 1.2168 11.999C0.895947 11.999 0.588233 12.1253 0.361353 12.3503C0.134474 12.5752 0.00701476 12.8803 0.00701476 13.1984V16.1609C0.0117609 16.7217 0.127866 17.276 0.348702 17.7922C0.569538 18.3085 0.890778 18.7765 1.29408 19.1697C1.69738 19.5628 2.17485 19.8734 2.69921 20.0836C3.22357 20.2938 3.78457 20.3996 4.35015 20.3948H18.8676L17.2949 21.9421C17.1815 22.0536 17.0915 22.1862 17.0301 22.3324C16.9687 22.4785 16.937 22.6353 16.937 22.7936C16.937 22.952 16.9687 23.1087 17.0301 23.2549C17.0915 23.4011 17.1815 23.5337 17.2949 23.6452C17.4074 23.7576 17.5412 23.8469 17.6886 23.9078C17.836 23.9686 17.9941 24 18.1538 24C18.3135 24 18.4717 23.9686 18.6191 23.9078C18.7665 23.8469 18.9003 23.7576 19.0128 23.6452L22.6421 20.047C22.7555 19.9355 22.8455 19.8028 22.907 19.6567C22.9684 19.5105 23 19.3538 23 19.1954C23 19.0371 22.9684 18.8803 22.907 18.7342C22.8455 18.588 22.7555 18.4553 22.6421 18.3438L19.0128 14.7456Z" fill="white"/>
</svg>
