<svg width="25" height="25" viewBox="0 0 25 25" fill="none" xmlns="http://www.w3.org/2000/svg">
<g id="Route">
<path id="Vector" fill-rule="evenodd" clip-rule="evenodd" d="M17.3187 11.7188H14.3656C12.4727 11.7188 10.9375 13.2539 10.9375 15.1469V15.3219C10.9375 17.2148 12.4727 18.75 14.3656 18.75H17.2641C17.6586 18.75 18.0359 18.9062 18.3148 19.1852C18.5938 19.4641 18.75 19.8414 18.75 20.2359V20.3891C18.75 20.7836 18.5938 21.1609 18.3148 21.4398C18.0359 21.7188 17.6586 21.875 17.2641 21.875H7.68125C8.69531 20.2836 9.375 17.6609 9.375 16.4062C9.375 14.25 7.625 12.5 5.46875 12.5C3.3125 12.5 1.5625 14.25 1.5625 16.4062C1.5625 17.7164 2.30312 20.5172 3.39219 22.0789C3.99766 22.9469 4.74062 23.4375 5.46875 23.4375H17.2641C18.0727 23.4375 18.8477 23.1164 19.4195 22.5445C19.9914 21.9727 20.3125 21.1977 20.3125 20.3891C20.3125 20.3383 20.3125 20.2867 20.3125 20.2359C20.3125 19.4273 19.9914 18.6523 19.4195 18.0805C18.8477 17.5086 18.0727 17.1875 17.2641 17.1875H16.4062H14.3656C13.3352 17.1875 12.5 16.3523 12.5 15.3219V15.1469C12.5 14.1164 13.3352 13.2812 14.3656 13.2812H19.5312C20.2594 13.2812 21.0023 12.7906 21.6078 11.9227C22.6969 10.3609 23.4375 7.56016 23.4375 6.25C23.4375 4.09375 21.6875 2.34375 19.5312 2.34375C17.375 2.34375 15.625 4.09375 15.625 6.25C15.625 7.50469 16.3047 10.1273 17.3187 11.7188ZM5.46875 21.875C5.30781 21.875 5.17266 21.7547 5.02734 21.6133C4.76719 21.3586 4.53125 20.9984 4.31484 20.5883C3.6 19.2359 3.125 17.3586 3.125 16.4062C3.125 15.1125 4.175 14.0625 5.46875 14.0625C6.7625 14.0625 7.8125 15.1125 7.8125 16.4062C7.8125 17.3586 7.3375 19.2359 6.62266 20.5883C6.40625 20.9984 6.17031 21.3586 5.91016 21.6133C5.76484 21.7547 5.62969 21.875 5.46875 21.875ZM5.46875 15.2344C6.11562 15.2344 6.64062 15.7594 6.64062 16.4062C6.64062 17.0531 6.11562 17.5781 5.46875 17.5781C4.82188 17.5781 4.29688 17.0531 4.29688 16.4062C4.29688 15.7594 4.82188 15.2344 5.46875 15.2344ZM19.5312 3.90625C20.825 3.90625 21.875 4.95625 21.875 6.25C21.875 7.20234 21.4 9.07969 20.6852 10.432C20.4688 10.8422 20.2328 11.2023 19.9727 11.457C19.8273 11.5984 19.6922 11.7188 19.5312 11.7188C19.3703 11.7188 19.2352 11.5984 19.0898 11.457C18.8297 11.2023 18.5938 10.8422 18.3773 10.432C17.6625 9.07969 17.1875 7.20234 17.1875 6.25C17.1875 4.95625 18.2375 3.90625 19.5312 3.90625ZM19.5312 5.07812C20.1781 5.07812 20.7031 5.60313 20.7031 6.25C20.7031 6.89687 20.1781 7.42188 19.5312 7.42188C18.8844 7.42188 18.3594 6.89687 18.3594 6.25C18.3594 5.60313 18.8844 5.07812 19.5312 5.07812Z" fill="black"/>
</g>
</svg>
