<svg width="31" height="32" viewBox="0 0 31 32" fill="none" xmlns="http://www.w3.org/2000/svg">
<path id="Vector" d="M30.5025 28.8152L24.7829 23.1419C27.003 20.3737 28.0782 16.8601 27.7873 13.3235C27.4964 9.78692 25.8615 6.4962 23.2189 4.12799C20.5762 1.75977 17.1267 0.49407 13.5795 0.591134C10.0323 0.688198 6.65707 2.14065 4.14788 4.64984C1.6387 7.15902 0.186245 10.5342 0.0891813 14.0814C-0.00788268 17.6286 1.25782 21.0782 3.62603 23.7208C5.99425 26.3635 9.28496 27.9983 12.8215 28.2892C16.3581 28.5801 19.8718 27.505 22.64 25.2848L28.3133 30.9582C28.4566 31.1027 28.6271 31.2173 28.815 31.2956C29.0028 31.3739 29.2044 31.4142 29.4079 31.4142C29.6114 31.4142 29.8129 31.3739 30.0008 31.2956C30.1886 31.2173 30.3591 31.1027 30.5025 30.9582C30.7803 30.6707 30.9356 30.2865 30.9356 29.8867C30.9356 29.4869 30.7803 29.1027 30.5025 28.8152ZM13.9912 25.2848C11.8568 25.2848 9.77036 24.6519 7.99568 23.4661C6.221 22.2803 4.8378 20.5949 4.02101 18.623C3.20421 16.651 2.9905 14.4812 3.4069 12.3878C3.8233 10.2944 4.8511 8.37154 6.36035 6.8623C7.86959 5.35306 9.79248 4.32525 11.8859 3.90885C13.9792 3.49245 16.1491 3.70616 18.121 4.52296C20.0929 5.33975 21.7783 6.72295 22.9641 8.49763C24.15 10.2723 24.7829 12.3588 24.7829 14.4932C24.7829 17.3553 23.6459 20.1002 21.6221 22.124C19.5982 24.1478 16.8533 25.2848 13.9912 25.2848Z" fill="black"/>
</svg>
