<svg width="31" height="31" viewBox="0 0 31 31" fill="none" xmlns="http://www.w3.org/2000/svg">
<path id="Vector" d="M30.5025 28.2293L24.7829 22.556C27.003 19.7878 28.0782 16.2741 27.7873 12.7376C27.4964 9.20098 25.8615 5.91026 23.2189 3.54205C20.5762 1.17384 17.1267 -0.0918671 13.5795 0.0051969C10.0323 0.102261 6.65707 1.55471 4.14788 4.0639C1.6387 6.57308 0.186245 9.94828 0.0891813 13.4955C-0.00788268 17.0427 1.25782 20.4922 3.62603 23.1349C5.99425 25.7775 9.28496 27.4124 12.8215 27.7033C16.3581 27.9942 19.8718 26.919 22.64 24.6989L28.3133 30.3722C28.4566 30.5167 28.6271 30.6314 28.815 30.7097C29.0028 30.7879 29.2044 30.8282 29.4079 30.8282C29.6114 30.8282 29.8129 30.7879 30.0008 30.7097C30.1886 30.6314 30.3591 30.5167 30.5025 30.3722C30.7803 30.0848 30.9356 29.7006 30.9356 29.3008C30.9356 28.901 30.7803 28.5168 30.5025 28.2293ZM13.9912 24.6989C11.8568 24.6989 9.77036 24.066 7.99568 22.8802C6.221 21.6944 4.8378 20.0089 4.02101 18.037C3.20421 16.0651 2.9905 13.8953 3.4069 11.8019C3.8233 9.70849 4.8511 7.7856 6.36035 6.27636C7.86959 4.76712 9.79248 3.73931 11.8859 3.32291C13.9792 2.90651 16.1491 3.12023 18.121 3.93702C20.0929 4.75382 21.7783 6.13701 22.9641 7.91169C24.15 9.68637 24.7829 11.7728 24.7829 13.9072C24.7829 16.7694 23.6459 19.5143 21.6221 21.5381C19.5982 23.5619 16.8533 24.6989 13.9912 24.6989Z" fill="white"/>
</svg>
