<svg width="26" height="27" viewBox="0 0 26 27" fill="none" xmlns="http://www.w3.org/2000/svg">
<g id="search 1">
<path id="Vector" d="M23.3751 21.8368L19.356 17.8501C20.9161 15.9049 21.6716 13.4359 21.4672 10.9507C21.2628 8.46555 20.114 6.15316 18.257 4.48901C16.4 2.82486 13.9759 1.93544 11.4833 2.00365C8.99068 2.07186 6.61892 3.0925 4.85571 4.85571C3.0925 6.61892 2.07186 8.99068 2.00365 11.4833C1.93544 13.9759 2.82486 16.4 4.48901 18.257C6.15316 20.114 8.46555 21.2628 10.9507 21.4672C13.4359 21.6716 15.9049 20.9161 17.8501 19.356L21.8368 23.3426C21.9375 23.4442 22.0573 23.5248 22.1894 23.5798C22.3214 23.6348 22.463 23.6631 22.606 23.6631C22.749 23.6631 22.8906 23.6348 23.0226 23.5798C23.1546 23.5248 23.2744 23.4442 23.3751 23.3426C23.5704 23.1406 23.6795 22.8707 23.6795 22.5897C23.6795 22.3088 23.5704 22.0388 23.3751 21.8368ZM11.7726 19.356C10.2728 19.356 8.80664 18.9112 7.55957 18.078C6.3125 17.2447 5.34052 16.0603 4.76656 14.6747C4.19259 13.289 4.04242 11.7642 4.33502 10.2932C4.62762 8.82219 5.34987 7.47096 6.41042 6.41042C7.47096 5.34987 8.82219 4.62762 10.2932 4.33502C11.7642 4.04242 13.289 4.19259 14.6747 4.76656C16.0603 5.34052 17.2447 6.3125 18.078 7.55957C18.9112 8.80664 19.356 10.2728 19.356 11.7726C19.356 13.7839 18.557 15.7127 17.1349 17.1349C15.7127 18.557 13.7839 19.356 11.7726 19.356Z" fill="#E52A49"/>
</g>
</svg>
