<svg width="28" height="31" viewBox="0 0 28 31" fill="none" xmlns="http://www.w3.org/2000/svg">
<path id="Vector" d="M27.75 20.0417C27.7466 19.1162 27.4656 18.2131 26.9434 17.449C26.4212 16.685 25.6818 16.0952 24.8208 15.7558L27.7037 4.96418C27.764 4.73435 27.7703 4.49371 27.7221 4.26105C27.674 4.02838 27.5727 3.81 27.4263 3.62293C27.2765 3.44765 27.0894 3.30819 26.8786 3.21481C26.6678 3.12143 26.4388 3.0765 26.2083 3.08335H5.0875L4.57875 1.14085C4.4903 0.812336 4.29566 0.522308 4.02518 0.315956C3.75469 0.109605 3.42354 -0.00147826 3.08333 1.48576e-05H0V3.08335H1.89625L5.71958 17.3592C5.80993 17.6955 6.01148 17.9914 6.29142 18.1985C6.57136 18.4057 6.9132 18.5119 7.26125 18.5H23.125C23.5339 18.5 23.926 18.6624 24.2151 18.9516C24.5042 19.2407 24.6667 19.6328 24.6667 20.0417C24.6667 20.4506 24.5042 20.8427 24.2151 21.1318C23.926 21.4209 23.5339 21.5833 23.125 21.5833H3.08333C2.67446 21.5833 2.28233 21.7458 1.99321 22.0349C1.70409 22.324 1.54167 22.7161 1.54167 23.125C1.54167 23.5339 1.70409 23.926 1.99321 24.2151C2.28233 24.5043 2.67446 24.6667 3.08333 24.6667H4.9025C4.64895 25.3653 4.56748 26.1146 4.66498 26.8514C4.76248 27.5881 5.03608 28.2905 5.46262 28.8991C5.88915 29.5077 6.45606 30.0045 7.11533 30.3475C7.77461 30.6905 8.50683 30.8696 9.25 30.8696C9.99317 30.8696 10.7254 30.6905 11.3847 30.3475C12.0439 30.0045 12.6108 29.5077 13.0374 28.8991C13.4639 28.2905 13.7375 27.5881 13.835 26.8514C13.9325 26.1146 13.851 25.3653 13.5975 24.6667H17.2358C17.005 25.3028 16.9166 25.9818 16.9768 26.6558C17.037 27.3298 17.2444 27.9823 17.5843 28.5675C17.9242 29.1526 18.3884 29.656 18.9441 30.0421C19.4997 30.4283 20.1334 30.6878 20.8003 30.8024C21.4672 30.917 22.1511 30.8839 22.8038 30.7053C23.4565 30.5268 24.0621 30.2072 24.5778 29.7691C25.0935 29.331 25.5068 28.7851 25.7886 28.1698C26.0703 27.5546 26.2136 26.885 26.2083 26.2083C26.2055 25.4119 25.9928 24.6302 25.5917 23.9421C26.2509 23.5265 26.7944 22.951 27.1718 22.2691C27.5491 21.5872 27.748 20.821 27.75 20.0417ZM21.7221 15.4167H8.47917L5.92 6.16668H24.2042L21.7221 15.4167ZM9.25 27.75C8.94509 27.75 8.64702 27.6596 8.3935 27.4902C8.13997 27.3208 7.94237 27.08 7.82569 26.7983C7.709 26.5166 7.67847 26.2066 7.73796 25.9076C7.79744 25.6085 7.94427 25.3338 8.15988 25.1182C8.37548 24.9026 8.65018 24.7558 8.94924 24.6963C9.24829 24.6368 9.55827 24.6673 9.83997 24.784C10.1217 24.9007 10.3624 25.0983 10.5318 25.3518C10.7012 25.6054 10.7917 25.9034 10.7917 26.2083C10.7917 26.6172 10.6292 27.0094 10.3401 27.2985C10.051 27.5876 9.65888 27.75 9.25 27.75ZM21.5833 27.75C21.2784 27.75 20.9804 27.6596 20.7268 27.4902C20.4733 27.3208 20.2757 27.08 20.159 26.7983C20.0423 26.5166 20.0118 26.2066 20.0713 25.9076C20.1308 25.6085 20.2776 25.3338 20.4932 25.1182C20.7088 24.9026 20.9835 24.7558 21.2826 24.6963C21.5816 24.6368 21.8916 24.6673 22.1733 24.784C22.455 24.9007 22.6958 25.0983 22.8652 25.3518C23.0346 25.6054 23.125 25.9034 23.125 26.2083C23.125 26.6172 22.9626 27.0094 22.6735 27.2985C22.3843 27.5876 21.9922 27.75 21.5833 27.75Z" fill="black"/>
</svg>
