<svg width="33" height="33" viewBox="0 0 33 33" fill="none" xmlns="http://www.w3.org/2000/svg">
<g id="shopping-cart-alt 1">
<path id="Vector" d="M29.5625 20.625C29.5595 19.7996 29.3089 18.9941 28.8431 18.3127C28.3774 17.6312 27.7179 17.1052 26.95 16.8025L29.5213 7.17751C29.575 6.97253 29.5806 6.7579 29.5376 6.55039C29.4947 6.34288 29.4044 6.1481 29.2738 5.98126C29.1402 5.82493 28.9733 5.70055 28.7853 5.61726C28.5973 5.53397 28.393 5.49391 28.1875 5.50001H9.35L8.89625 3.76751C8.81736 3.47452 8.64377 3.21584 8.40252 3.0318C8.16128 2.84776 7.86593 2.74868 7.5625 2.75001H4.8125V5.50001H6.50375L9.91375 18.2325C9.99433 18.5325 10.1741 18.7963 10.4238 18.9811C10.6734 19.1659 10.9783 19.2606 11.2888 19.25H25.4375C25.8022 19.25 26.1519 19.3949 26.4098 19.6527C26.6676 19.9106 26.8125 20.2603 26.8125 20.625C26.8125 20.9897 26.6676 21.3394 26.4098 21.5973C26.1519 21.8551 25.8022 22 25.4375 22H7.5625C7.19783 22 6.84809 22.1449 6.59023 22.4027C6.33237 22.6606 6.1875 23.0103 6.1875 23.375C6.1875 23.7397 6.33237 24.0894 6.59023 24.3473C6.84809 24.6052 7.19783 24.75 7.5625 24.75H9.185C8.95886 25.3731 8.8862 26.0414 8.97315 26.6985C9.06011 27.3556 9.30414 27.9821 9.68456 28.5249C10.065 29.0677 10.5706 29.5108 11.1586 29.8167C11.7466 30.1226 12.3997 30.2824 13.0625 30.2824C13.7253 30.2824 14.3784 30.1226 14.9664 29.8167C15.5544 29.5108 16.06 29.0677 16.4404 28.5249C16.8209 27.9821 17.0649 27.3556 17.1518 26.6985C17.2388 26.0414 17.1661 25.3731 16.94 24.75H20.185C19.9791 25.3173 19.9003 25.9229 19.954 26.5241C20.0077 27.1252 20.1926 27.7072 20.4958 28.2291C20.799 28.7509 21.213 29.1999 21.7086 29.5443C22.2042 29.8888 22.7693 30.1202 23.3641 30.2224C23.9589 30.3246 24.5689 30.2951 25.151 30.1358C25.7332 29.9766 26.2733 29.6915 26.7332 29.3008C27.1932 28.9101 27.5618 28.4232 27.8131 27.8744C28.0644 27.3257 28.1922 26.7285 28.1875 26.125C28.1849 25.4146 27.9952 24.7175 27.6375 24.1038C28.2255 23.7331 28.7102 23.2198 29.0468 22.6116C29.3833 22.0034 29.5607 21.3201 29.5625 20.625ZM24.1863 16.5H12.375L10.0925 8.25001H26.4L24.1863 16.5ZM13.0625 27.5C12.7906 27.5 12.5247 27.4194 12.2986 27.2683C12.0725 27.1172 11.8962 26.9025 11.7922 26.6512C11.6881 26.4 11.6609 26.1235 11.7139 25.8568C11.767 25.59 11.8979 25.345 12.0902 25.1527C12.2825 24.9604 12.5275 24.8295 12.7943 24.7764C13.061 24.7234 13.3374 24.7506 13.5887 24.8547C13.8399 24.9588 14.0547 25.135 14.2058 25.3611C14.3569 25.5872 14.4375 25.8531 14.4375 26.125C14.4375 26.4897 14.2926 26.8394 14.0348 27.0973C13.7769 27.3552 13.4272 27.5 13.0625 27.5ZM24.0625 27.5C23.7906 27.5 23.5247 27.4194 23.2986 27.2683C23.0725 27.1172 22.8962 26.9025 22.7922 26.6512C22.6881 26.4 22.6609 26.1235 22.7139 25.8568C22.767 25.59 22.8979 25.345 23.0902 25.1527C23.2825 24.9604 23.5275 24.8295 23.7943 24.7764C24.061 24.7234 24.3374 24.7506 24.5887 24.8547C24.8399 24.9588 25.0547 25.135 25.2058 25.3611C25.3569 25.5872 25.4375 25.8531 25.4375 26.125C25.4375 26.4897 25.2926 26.8394 25.0348 27.0973C24.7769 27.3552 24.4272 27.5 24.0625 27.5Z" fill="#E52A49"/>
</g>
</svg>
