<svg width="109" height="109" viewBox="0 0 109 109" fill="none" xmlns="http://www.w3.org/2000/svg">
<g id="support+icon-1320184269482295776 1">
<path id="Vector" d="M54.5 94.4667V101.733C63.0093 101.733 69.7673 98.6341 74.9302 94.4667H54.5Z" fill="#E52A49"/>
<path id="Vector_2" d="M18.1667 58.1333V65.4C18.1667 74.4833 25.4333 76.3 25.4333 76.3C25.4333 76.3 32.7 98.1 54.5 98.1" stroke="#E52A49" stroke-width="2" stroke-miterlimit="10" stroke-linecap="round"/>
<path id="Vector_3" d="M94.4667 61.7667H83.5667C83.5667 39.0947 72.6667 29.0667 72.6667 29.0667C61.7667 54.5001 25.4333 36.3334 25.4333 61.7667H14.5333C14.5333 61.7667 14.5333 61.338 14.5333 47.2334C14.5333 21.8001 36.3333 7.26672 54.5 7.26672C69.0333 7.26672 72.6667 14.5334 72.6667 14.5334C87.2 14.5334 94.4667 32.7001 94.4667 47.2334V61.7667Z" fill="#E52A49"/>
<path id="Vector_4" d="M56.3167 76.3C55.6772 76.3 53.3228 76.3 52.6833 76.3C49.6749 76.3 47.2333 78.7416 47.2333 81.75C47.2333 84.7584 49.6749 87.2 52.6833 87.2C53.3228 87.2 55.6772 87.2 56.3167 87.2C59.3251 87.2 61.7667 84.7584 61.7667 81.75C61.7667 78.7416 59.3251 76.3 56.3167 76.3Z" fill="#E52A49"/>
<path id="Vector_5" d="M58.1333 83.5666H76.3C84.326 83.5666 90.8333 77.0593 90.8333 69.0333V58.1333" stroke="#E52A49" stroke-width="2" stroke-miterlimit="10" stroke-linecap="round"/>
<path id="Vector_6" d="M90.8333 72.6667H83.5667V54.5H90.8333C94.8482 54.5 98.1 57.7518 98.1 61.7667V65.4C98.1 69.4148 94.8482 72.6667 90.8333 72.6667Z" fill="#E52A49"/>
</g>
</svg>
