<svg width="17" height="16" viewBox="0 0 17 16" fill="none" xmlns="http://www.w3.org/2000/svg">
<path id="Vector" d="M16.5512 0.299432C16.1955 -0.00587432 15.7067 -0.0844386 15.2784 0.0948372L0.774091 6.15656C0.136064 6.42841 -0.16825 7.18424 0.0943625 7.84467C0.23019 8.18624 0.500559 8.45134 0.837335 8.57323L3.96635 9.69931L5.66209 15.5032C5.6655 15.5151 5.67597 15.5223 5.68037 15.5336C5.69791 15.5799 5.72355 15.6225 5.75592 15.6592C5.76797 15.674 5.78112 15.6879 5.79515 15.7007C5.83739 15.737 5.88646 15.7638 5.93923 15.7795C5.94728 15.782 5.95267 15.7894 5.96087 15.7913L5.96561 15.7911L5.96798 15.7921C5.99501 15.7984 6.02258 15.8014 6.0502 15.8011C6.08632 15.7998 6.12214 15.7934 6.15653 15.782C6.1632 15.7801 6.16992 15.7806 6.17644 15.7783C6.23519 15.7569 6.28826 15.7217 6.33149 15.6753C6.33653 15.6701 6.34419 15.6692 6.34903 15.6636L8.78868 12.8771L12.3478 15.7299C12.564 15.905 12.8306 16.0001 13.1051 16C13.6988 15.9999 14.2113 15.5694 14.3336 14.968L16.9749 1.545C17.0664 1.08067 16.9035 0.601924 16.5512 0.299432ZM6.54751 10.8L5.975 13.6801L4.78107 9.59241L10.7027 6.40038L6.6574 10.5881C6.60147 10.646 6.56327 10.7197 6.54751 10.8ZM13.5408 14.7994C13.5097 14.9537 13.4034 15.0802 13.2601 15.1333C13.1201 15.1891 12.962 15.1642 12.8443 15.0679L8.98795 11.9769C8.821 11.8431 8.58269 11.8648 8.44089 12.0268L6.74441 13.9644L7.31593 11.0922L13.1352 5.0673C13.2934 4.90388 13.2936 4.63872 13.1357 4.47505C13.0109 4.34549 12.8192 4.3149 12.6624 4.3995L4.27304 8.92201L1.10217 7.78104C0.929336 7.72217 0.811791 7.55609 0.809666 7.36776C0.801316 7.1781 0.90977 7.00373 1.08004 6.9332L15.582 0.872296C15.7335 0.805751 15.9083 0.833627 16.0334 0.944313C16.1579 1.04835 16.2151 1.21617 16.1812 1.37805L13.5408 14.7994Z" fill="#E52A49"/>
</svg>
