<svg width="25" height="25" viewBox="0 0 25 25" fill="none" xmlns="http://www.w3.org/2000/svg">
<g id="User">
<path id="Vector" d="M16.3602 6.79683C16.3602 7.01168 16.3455 7.22652 16.3187 7.43892C16.3309 7.35347 16.3431 7.26558 16.3528 7.18013C16.2942 7.60494 16.1819 8.01753 16.0184 8.41304C16.0501 8.33492 16.0843 8.25679 16.116 8.17867C15.9524 8.56441 15.7425 8.92574 15.4861 9.25777L15.6399 9.06002C15.386 9.38716 15.0906 9.68257 14.7635 9.93648L14.9612 9.78267C14.6292 10.0366 14.2679 10.249 13.8821 10.4126C13.9603 10.3808 14.0384 10.3466 14.1165 10.3149C13.721 10.4785 13.3084 10.5908 12.8836 10.6494C12.969 10.6372 13.0569 10.625 13.1424 10.6152C12.7151 10.6713 12.2855 10.6713 11.8582 10.6152C11.9437 10.6274 12.0315 10.6396 12.117 10.6494C11.6922 10.5908 11.2796 10.4785 10.8841 10.3149C10.9622 10.3466 11.0403 10.3808 11.1185 10.4126C10.7327 10.249 10.3714 10.039 10.0394 9.78267L10.2371 9.93648C9.90997 9.68257 9.61455 9.38716 9.36065 9.06002L9.51446 9.25777C9.26055 8.92574 9.04815 8.56441 8.88457 8.17867C8.91631 8.25679 8.95049 8.33492 8.98223 8.41304C8.81866 8.01753 8.70635 7.60494 8.64776 7.18013C8.65997 7.26558 8.67217 7.35347 8.68194 7.43892C8.62579 7.01168 8.62579 6.58199 8.68194 6.15474C8.66973 6.24019 8.65752 6.32808 8.64776 6.41353C8.70635 5.98873 8.81866 5.57613 8.98223 5.18062C8.95049 5.25875 8.91631 5.33687 8.88457 5.415C9.04815 5.02925 9.25811 4.66793 9.51446 4.33589L9.36065 4.53365C9.61455 4.2065 9.90997 3.91109 10.2371 3.65718L10.0394 3.81099C10.3714 3.55709 10.7327 3.34468 11.1185 3.18111C11.0403 3.21285 10.9622 3.24703 10.8841 3.27877C11.2796 3.11519 11.6922 3.00289 12.117 2.94429C12.0315 2.9565 11.9437 2.96871 11.8582 2.97847C12.2855 2.92232 12.7151 2.92232 13.1424 2.97847C13.0569 2.96627 12.969 2.95406 12.8836 2.94429C13.3084 3.00289 13.721 3.11519 14.1165 3.27877C14.0384 3.24703 13.9603 3.21285 13.8821 3.18111C14.2679 3.34468 14.6292 3.55464 14.9612 3.81099L14.7635 3.65718C15.0906 3.91109 15.386 4.2065 15.6399 4.53365L15.4861 4.33589C15.74 4.66793 15.9524 5.02925 16.116 5.415C16.0843 5.33687 16.0501 5.25875 16.0184 5.18062C16.1819 5.57613 16.2942 5.98873 16.3528 6.41353C16.3406 6.32808 16.3284 6.24019 16.3187 6.15474C16.3455 6.36714 16.3577 6.58199 16.3602 6.79683C16.3626 7.30709 16.8069 7.79781 17.3367 7.77339C17.8641 7.74898 18.3157 7.34371 18.3133 6.79683C18.3084 5.6274 17.9568 4.43111 17.2684 3.47896C17.0828 3.22261 16.8851 2.97115 16.6653 2.7441C16.4432 2.51461 16.199 2.31685 15.9451 2.12398C15.4837 1.77242 14.9686 1.51363 14.4217 1.31343C12.2171 0.505328 9.5584 1.22554 8.0667 3.04195C7.86163 3.29097 7.66631 3.54976 7.5003 3.82808C7.33428 4.10396 7.20489 4.39693 7.08526 4.69478C6.86065 5.24654 6.7459 5.83248 6.69952 6.42574C6.60918 7.58785 6.91192 8.80123 7.51739 9.79732C8.10088 10.7592 8.98223 11.5844 10.0125 12.0507C10.3152 12.1875 10.6253 12.3144 10.9476 12.4047C11.2674 12.4926 11.5921 12.5415 11.9217 12.5805C12.5223 12.6513 13.1351 12.6025 13.7283 12.4829C15.9817 12.0239 17.8689 10.083 18.2181 7.80513C18.2693 7.4731 18.3084 7.14107 18.3084 6.80416C18.3108 6.2939 17.8567 5.80318 17.3318 5.82759C16.8045 5.84468 16.3602 6.24996 16.3602 6.79683ZM19.5999 22.0629H7.07305C6.51885 22.0629 5.96465 22.0678 5.41045 22.0629C5.34942 22.0629 5.28838 22.0581 5.22979 22.0507C5.31524 22.0629 5.40313 22.0752 5.48858 22.0849C5.39092 22.0703 5.29815 22.0434 5.20782 22.0068C5.28594 22.0385 5.36407 22.0727 5.44219 22.1045C5.34454 22.0629 5.2542 22.0092 5.16875 21.9433L5.36651 22.0971C5.29327 22.0361 5.22491 21.9702 5.16631 21.8969L5.32012 22.0947C5.2542 22.0092 5.20293 21.9189 5.15899 21.8212C5.19073 21.8994 5.22491 21.9775 5.25664 22.0556C5.22002 21.9653 5.19561 21.8701 5.17852 21.7749C5.19073 21.8603 5.20293 21.9482 5.2127 22.0336C5.17364 21.7382 5.20049 21.4257 5.20049 21.1279V20.083C5.20049 19.8217 5.21514 19.5629 5.24932 19.3042C5.23711 19.3896 5.22491 19.4775 5.21514 19.5629C5.2835 19.0625 5.41534 18.5717 5.61309 18.1054C5.58135 18.1835 5.54717 18.2617 5.51543 18.3398C5.70586 17.8955 5.95 17.478 6.24541 17.0947L6.09161 17.2924C6.38702 16.914 6.72637 16.5722 7.10723 16.2768L6.90948 16.4306C7.29278 16.1352 7.71026 15.8911 8.15459 15.7006C8.07647 15.7324 7.99834 15.7666 7.92022 15.7983C8.38653 15.603 8.87481 15.4687 9.37774 15.4003C9.29229 15.4126 9.2044 15.4248 9.11895 15.4345C9.48028 15.3881 9.83916 15.3857 10.2029 15.3857H14.6707C15.0735 15.3857 15.4739 15.3833 15.8768 15.4345C15.7913 15.4223 15.7034 15.4101 15.618 15.4003C16.1185 15.4687 16.6092 15.6005 17.0755 15.7983C16.9974 15.7666 16.9192 15.7324 16.8411 15.7006C17.2855 15.8911 17.7029 16.1352 18.0862 16.4306L17.8885 16.2768C18.2669 16.5722 18.6087 16.9116 18.9041 17.2924L18.7503 17.0947C19.0457 17.478 19.2898 17.8955 19.4803 18.3398C19.4485 18.2617 19.4144 18.1835 19.3826 18.1054C19.5779 18.5717 19.7122 19.06 19.7806 19.5629C19.7684 19.4775 19.7562 19.3896 19.7464 19.3042C19.7928 19.6728 19.7952 20.039 19.7952 20.4101V21.6186C19.7952 21.7578 19.8001 21.8969 19.783 22.0336C19.7952 21.9482 19.8074 21.8603 19.8172 21.7749C19.8025 21.8725 19.7757 21.9653 19.7391 22.0556C19.7708 21.9775 19.805 21.8994 19.8367 21.8212C19.7952 21.9189 19.7415 22.0092 19.6756 22.0947L19.8294 21.8969C19.7684 21.9702 19.7024 22.0385 19.6292 22.0971L19.827 21.9433C19.7415 22.0092 19.6512 22.0605 19.5535 22.1045C19.6316 22.0727 19.7098 22.0385 19.7879 22.0068C19.6976 22.0434 19.6023 22.0678 19.5071 22.0849C19.5926 22.0727 19.6805 22.0605 19.7659 22.0507C19.7122 22.0581 19.6561 22.0605 19.5999 22.0629C19.3484 22.0654 19.0897 22.1704 18.909 22.3486C18.7405 22.517 18.6111 22.7954 18.6233 23.0395C18.6478 23.562 19.053 24.0234 19.5999 24.0161C20.5496 24.0014 21.3846 23.3813 21.6629 22.4707C21.7728 22.1093 21.7483 21.7211 21.7483 21.3501C21.7483 20.5004 21.7752 19.6582 21.6287 18.8159C21.4139 17.583 20.7938 16.4233 19.9441 15.5127C19.0945 14.602 17.952 13.9331 16.7435 13.6352C16.0501 13.4643 15.3519 13.4375 14.6439 13.4375H10.3128C9.5877 13.4375 8.86748 13.4716 8.16192 13.6596C6.96319 13.977 5.83526 14.6533 5.00274 15.5712C4.16289 16.4965 3.55498 17.6586 3.35723 18.8989C3.22539 19.7314 3.25225 20.5664 3.25225 21.4062C3.25225 21.7919 3.23028 22.1948 3.36944 22.5634C3.5501 23.0371 3.83819 23.4106 4.26055 23.6914C4.59014 23.9086 5.00762 24.0136 5.39825 24.0185C5.58868 24.021 5.77911 24.0185 5.96954 24.0185H19.6023C20.1126 24.0185 20.6033 23.5693 20.5789 23.0419C20.5545 22.5097 20.1492 22.0629 19.5999 22.0629Z" fill="black"/>
</g>
</svg>
