<svg width="25" height="25" viewBox="0 0 25 25" fill="none" xmlns="http://www.w3.org/2000/svg">
<g id="Wallet" clip-path="url(#clip0_177_46271)">
<path id="Vector" d="M21.8499 12.6572C21.6131 12.6572 21.386 12.5631 21.2186 12.3957C21.0511 12.2282 20.9571 12.0011 20.9571 11.7643V9.19289C20.9906 8.68693 20.8235 8.18812 20.4919 7.80444C20.1604 7.42077 19.6911 7.1831 19.1856 7.14289H3.73563C3.49883 7.14289 3.27173 7.04882 3.10429 6.88138C2.93684 6.71394 2.84277 6.48684 2.84277 6.25003C2.84277 6.01323 2.93684 5.78613 3.10429 5.61869C3.27173 5.45125 3.49883 5.35718 3.73563 5.35718H19.1856C20.1665 5.39256 21.0933 5.81548 21.7628 6.53318C22.4323 7.25089 22.7898 8.2048 22.7571 9.18575V11.7572C22.758 11.8762 22.7352 11.9943 22.6898 12.1044C22.6445 12.2145 22.5776 12.3144 22.4931 12.3983C22.4085 12.4821 22.3081 12.5482 22.1977 12.5927C22.0872 12.6372 21.969 12.6591 21.8499 12.6572Z" fill="black"/>
<path id="Vector_2" d="M19.1856 24.0571H3.73561C2.75475 24.0218 1.82796 23.5989 1.15846 22.8811C0.488954 22.1634 0.131393 21.2095 0.164181 20.2286V4.11429C0.164181 3.87749 0.258249 3.65039 0.425692 3.48295C0.593136 3.3155 0.820237 3.22144 1.05704 3.22144C1.29384 3.22144 1.52094 3.3155 1.68838 3.48295C1.85583 3.65039 1.9499 3.87749 1.9499 4.11429V20.2286C1.91644 20.7338 2.08375 21.2318 2.41546 21.6143C2.74717 21.9969 3.21646 22.233 3.72132 22.2714H19.1856C19.6905 22.233 20.1598 21.9969 20.4915 21.6143C20.8232 21.2318 20.9905 20.7338 20.957 20.2286V18.4143C20.957 18.1775 21.0511 17.9504 21.2185 17.7829C21.386 17.6155 21.6131 17.5214 21.8499 17.5214C22.0867 17.5214 22.3138 17.6155 22.4812 17.7829C22.6487 17.9504 22.7428 18.1775 22.7428 18.4143V20.2286C22.7756 21.2071 22.42 22.159 21.7535 22.8763C21.0871 23.5936 20.1639 24.0181 19.1856 24.0571Z" fill="black"/>
<path id="Vector_3" d="M18.8216 7.1429C18.5872 7.14293 18.3623 7.05082 18.1952 6.88646C18.0282 6.72209 17.9325 6.49864 17.9287 6.26433V4.28575C17.912 3.86196 17.7284 3.46197 17.418 3.17297C17.1075 2.88396 16.6955 2.72937 16.2716 2.7429H3.41443C3.04993 2.72937 2.69493 2.86084 2.42717 3.10851C2.15941 3.35619 2.00072 3.69988 1.98585 4.06433C2.00072 4.42877 2.15941 4.77246 2.42717 5.02014C2.69493 5.26782 3.04993 5.39929 3.41443 5.38575H11.2716C11.5084 5.38575 11.7355 5.47982 11.9029 5.64727C12.0704 5.81471 12.1644 6.04181 12.1644 6.27861C12.1644 6.51541 12.0704 6.74251 11.9029 6.90996C11.7355 7.0774 11.5084 7.17147 11.2716 7.17147H3.393C2.97685 7.17808 2.56349 7.10254 2.17658 6.94916C1.78968 6.79577 1.43683 6.56757 1.13825 6.27762C0.839676 5.98767 0.601231 5.64166 0.436578 5.25942C0.271924 4.87717 0.184295 4.4662 0.178711 4.05004C0.19374 3.21203 0.540626 2.41422 1.14324 1.8317C1.74585 1.24917 2.55496 0.92952 3.393 0.942898H16.2501C16.6975 0.933431 17.1423 1.01255 17.559 1.17569C17.9756 1.33883 18.3559 1.58277 18.6779 1.89348C18.9999 2.20418 19.2572 2.57551 19.4351 2.98608C19.613 3.39665 19.7079 3.83835 19.7144 4.28575V6.26433C19.7107 6.49864 19.615 6.72209 19.4479 6.88646C19.2809 7.05082 19.0559 7.14293 18.8216 7.1429ZM22.4287 19.2858H17.4787C16.5118 19.3049 15.5769 18.9396 14.8791 18.2699C14.1814 17.6003 13.7779 16.6812 13.7573 15.7143V14.4215C13.7779 13.4546 14.1814 12.5355 14.8791 11.8659C15.5769 11.1962 16.5118 10.8309 17.4787 10.85H22.4787C22.7911 10.851 23.1002 10.9134 23.3884 11.0338C23.6766 11.1542 23.9383 11.3302 24.1585 11.5518C24.3787 11.7733 24.5532 12.036 24.6718 12.325C24.7905 12.6139 24.8511 12.9234 24.8501 13.2358V16.9429C24.8389 17.5744 24.5776 18.1757 24.1237 18.6149C23.6698 19.054 23.0602 19.2953 22.4287 19.2858ZM17.4787 12.6429C16.9865 12.6235 16.5067 12.7997 16.144 13.1329C15.7813 13.4662 15.5653 13.9294 15.543 14.4215V15.75C15.5653 16.2421 15.7813 16.7053 16.144 17.0386C16.5067 17.3718 16.9865 17.548 17.4787 17.5286H22.4287C22.5847 17.5286 22.7344 17.4671 22.8454 17.3575C22.9564 17.2479 23.0197 17.0989 23.0216 16.9429V13.2358C23.0173 13.0932 22.9585 12.9577 22.8573 12.8572C22.8037 12.8012 22.7394 12.7565 22.6683 12.7259C22.5971 12.6952 22.5205 12.6791 22.443 12.6786L17.4787 12.6429Z" fill="black"/>
<path id="Vector_4" d="M17.9715 15.9786C18.4646 15.9786 18.8643 15.5788 18.8643 15.0857C18.8643 14.5926 18.4646 14.1929 17.9715 14.1929C17.4784 14.1929 17.0786 14.5926 17.0786 15.0857C17.0786 15.5788 17.4784 15.9786 17.9715 15.9786Z" fill="black"/>
</g>
<defs>
<clipPath id="clip0_177_46271">
<rect width="25" height="25" fill="white"/>
</clipPath>
</defs>
</svg>
