<svg width="24" height="22" viewBox="0 0 24 22" fill="none" xmlns="http://www.w3.org/2000/svg">
<g id="game-structure 1">
<path id="Vector" d="M21 16H19V13C19 12.7348 18.8946 12.4804 18.7071 12.2929C18.5196 12.1054 18.2652 12 18 12H13V9.29001L14.13 9.88001C14.2948 9.96621 14.4804 10.0048 14.6658 9.9913C14.8513 9.97785 15.0294 9.91294 15.18 9.80386C15.3307 9.69479 15.4479 9.54587 15.5185 9.37383C15.5892 9.2018 15.6105 9.01347 15.58 8.83001L15.18 6.46001L16.9 4.77001C17.0303 4.64279 17.1233 4.48242 17.1692 4.30619C17.215 4.12996 17.2118 3.94457 17.16 3.77001C17.102 3.59228 16.9954 3.43436 16.8522 3.31416C16.7091 3.19397 16.5351 3.11631 16.35 3.09001L14 2.72001L12.9 0.560005C12.8181 0.390934 12.6903 0.248348 12.5311 0.148579C12.3719 0.0488106 12.1879 -0.00410461 12 -0.00410461C11.8121 -0.00410461 11.6281 0.0488106 11.4689 0.148579C11.3097 0.248348 11.1819 0.390934 11.1 0.560005L10 2.72001L7.61 3.07001C7.42492 3.09631 7.25092 3.17397 7.10775 3.29416C6.96458 3.41436 6.85796 3.57228 6.8 3.75001C6.74819 3.92457 6.74502 4.10996 6.79084 4.28619C6.83666 4.46242 6.92973 4.62279 7.06 4.75001L8.82 6.46001L8.42 8.83001C8.38952 9.01347 8.4108 9.2018 8.48145 9.37383C8.5521 9.54587 8.66933 9.69479 8.81996 9.80386C8.9706 9.91294 9.14866 9.97785 9.33415 9.9913C9.51964 10.0048 9.70521 9.96621 9.87 9.88001L11 9.29001V12H6C5.73478 12 5.48043 12.1054 5.29289 12.2929C5.10536 12.4804 5 12.7348 5 13V16H3C2.73478 16 2.48043 16.1054 2.29289 16.2929C2.10536 16.4804 2 16.7348 2 17V19C2 19.2652 2.10536 19.5196 2.29289 19.7071C2.48043 19.8946 2.73478 20 3 20C3.26522 20 3.51957 19.8946 3.70711 19.7071C3.89464 19.5196 4 19.2652 4 19V18H8V19C8 19.2652 8.10536 19.5196 8.29289 19.7071C8.48043 19.8946 8.73478 20 9 20C9.26522 20 9.51957 19.8946 9.70711 19.7071C9.89464 19.5196 10 19.2652 10 19V17C10 16.7348 9.89464 16.4804 9.70711 16.2929C9.51957 16.1054 9.26522 16 9 16H7V14H17V16H15C14.7348 16 14.4804 16.1054 14.2929 16.2929C14.1054 16.4804 14 16.7348 14 17V19C14 19.2652 14.1054 19.5196 14.2929 19.7071C14.4804 19.8946 14.7348 20 15 20C15.2652 20 15.5196 19.8946 15.7071 19.7071C15.8946 19.5196 16 19.2652 16 19V18H20V19C20 19.2652 20.1054 19.5196 20.2929 19.7071C20.4804 19.8946 20.7348 20 21 20C21.2652 20 21.5196 19.8946 21.7071 19.7071C21.8946 19.5196 22 19.2652 22 19V17C22 16.7348 21.8946 16.4804 21.7071 16.2929C21.5196 16.1054 21.2652 16 21 16ZM12 6.63001C11.8359 6.63083 11.6744 6.67204 11.53 6.75001L10.73 7.17001L10.88 6.27001C10.9062 6.11081 10.8936 5.94763 10.8431 5.79439C10.7926 5.64115 10.7057 5.50241 10.59 5.39001L9.94 4.75001L10.84 4.62001C11.001 4.59849 11.1544 4.53808 11.2868 4.44399C11.4192 4.3499 11.5267 4.22497 11.6 4.08001L12 3.26001L12.4 4.08001C12.4733 4.22497 12.5808 4.3499 12.7132 4.44399C12.8456 4.53808 12.999 4.59849 13.16 4.62001L14.06 4.75001L13.41 5.39001C13.2943 5.50241 13.2074 5.64115 13.1569 5.79439C13.1064 5.94763 13.0938 6.11081 13.12 6.27001L13.27 7.17001L12.47 6.75001C12.3256 6.67204 12.1641 6.63083 12 6.63001Z" fill="#E52A49"/>
</g>
</svg>
